<svg width="1932" height="1080" viewBox="0 0 1932 1080" fill="none" xmlns="http://www.w3.org/2000/svg">
<path d="M-44.8458 137.241H1983.46" stroke="#3A00FF" stroke-opacity="0.05" stroke-width="2" stroke-linecap="square" stroke-linejoin="round" stroke-dasharray="7 7"/>
<path d="M-44.8458 359.08H1983.46" stroke="#3A00FF" stroke-opacity="0.05" stroke-width="2" stroke-linecap="square" stroke-linejoin="round" stroke-dasharray="7 7"/>
<path d="M-44.8458 580.92H1983.46" stroke="#3A00FF" stroke-opacity="0.05" stroke-width="2" stroke-linecap="square" stroke-linejoin="round" stroke-dasharray="7 7"/>
<path d="M-44.8458 802.538H1983.46" stroke="#3A00FF" stroke-opacity="0.05" stroke-width="2" stroke-linecap="square" stroke-linejoin="round" stroke-dasharray="7 7"/>
<path d="M-44.8458 1024.38H1983.46" stroke="#3A00FF" stroke-opacity="0.05" stroke-width="2" stroke-linecap="square" stroke-linejoin="round" stroke-dasharray="7 7"/>
<path d="M1733.18 -540.846V1487.46" stroke="#3A00FF" stroke-opacity="0.05" stroke-width="2" stroke-linecap="square" stroke-linejoin="round" stroke-dasharray="7 7"/>
<path d="M1511.56 -540.846V1487.46" stroke="#3A00FF" stroke-opacity="0.05" stroke-width="2" stroke-linecap="square" stroke-linejoin="round" stroke-dasharray="7 7"/>
<path d="M1289.72 -540.846V1487.46" stroke="#3A00FF" stroke-opacity="0.05" stroke-width="2" stroke-linecap="square" stroke-linejoin="round" stroke-dasharray="7 7"/>
<path d="M1067.88 -540.846V1487.46" stroke="#3A00FF" stroke-opacity="0.05" stroke-width="2" stroke-linecap="square" stroke-linejoin="round" stroke-dasharray="7 7"/>
<path d="M846.26 -540.846V1487.46" stroke="#3A00FF" stroke-opacity="0.05" stroke-width="2" stroke-linecap="square" stroke-linejoin="round" stroke-dasharray="7 7"/>
<path d="M624.421 -540.846V1487.46" stroke="#3A00FF" stroke-opacity="0.05" stroke-width="2" stroke-linecap="square" stroke-linejoin="round" stroke-dasharray="7 7"/>
<path d="M402.581 -540.846V1487.46" stroke="#3A00FF" stroke-opacity="0.05" stroke-width="2" stroke-linecap="square" stroke-linejoin="round" stroke-dasharray="7 7"/>
<path d="M180.742 -540.846V1487.46" stroke="#3A00FF" stroke-opacity="0.05" stroke-width="2" stroke-linecap="square" stroke-linejoin="round" stroke-dasharray="7 7"/>
<path d="M1733.18 120.041V154.441" stroke="#F4F1FF" stroke-width="3.2994" stroke-miterlimit="10"/>
<path d="M1750.6 137.241H1715.98" stroke="#F4F1FF" stroke-width="3.2994" stroke-miterlimit="10"/>
<path d="M1511.56 120.041V154.441" stroke="#F4F1FF" stroke-width="3.2994" stroke-miterlimit="10"/>
<path d="M1528.76 137.241H1494.14" stroke="#F4F1FF" stroke-width="3.2994" stroke-miterlimit="10"/>
<path d="M1733.18 341.88V376.281" stroke="#F4F1FF" stroke-width="3.2994" stroke-miterlimit="10"/>
<path d="M1750.6 359.08H1715.98" stroke="#F4F1FF" stroke-width="3.2994" stroke-miterlimit="10"/>
<path d="M1511.56 341.88V376.281" stroke="#F4F1FF" stroke-width="3.2994" stroke-miterlimit="10"/>
<path d="M1528.76 359.08H1494.14" stroke="#F4F1FF" stroke-width="3.2994" stroke-miterlimit="10"/>
<path d="M1733.18 563.499V598.12" stroke="#F4F1FF" stroke-width="3.2994" stroke-miterlimit="10"/>
<path d="M1750.6 580.919H1715.98" stroke="#F4F1FF" stroke-width="3.2994" stroke-miterlimit="10"/>
<path d="M1511.56 563.499V598.12" stroke="#F4F1FF" stroke-width="3.2994" stroke-miterlimit="10"/>
<path d="M1528.76 580.919H1494.14" stroke="#F4F1FF" stroke-width="3.2994" stroke-miterlimit="10"/>
<path d="M1733.18 785.338V819.959" stroke="#F4F1FF" stroke-width="3.2994" stroke-miterlimit="10"/>
<path d="M1750.6 802.538H1715.98" stroke="#F4F1FF" stroke-width="3.2994" stroke-miterlimit="10"/>
<path d="M1511.56 785.338V819.959" stroke="#F4F1FF" stroke-width="3.2994" stroke-miterlimit="10"/>
<path d="M1528.76 802.538H1494.14" stroke="#F4F1FF" stroke-width="3.2994" stroke-miterlimit="10"/>
<path d="M1733.18 1007.18V1041.58" stroke="#F4F1FF" stroke-width="3.2994" stroke-miterlimit="10"/>
<path d="M1750.6 1024.38H1715.98" stroke="#F4F1FF" stroke-width="3.2994" stroke-miterlimit="10"/>
<path d="M1511.56 1007.18V1041.58" stroke="#F4F1FF" stroke-width="3.2994" stroke-miterlimit="10"/>
<path d="M1528.76 1024.38H1494.14" stroke="#F4F1FF" stroke-width="3.2994" stroke-miterlimit="10"/>
<path d="M1289.94 120.041V154.441" stroke="#F4F1FF" stroke-width="3.2994" stroke-miterlimit="10"/>
<path d="M1307.14 137.241H1272.74" stroke="#F4F1FF" stroke-width="3.2994" stroke-miterlimit="10"/>
<path d="M1068.1 120.041V154.441" stroke="#F4F1FF" stroke-width="3.2994" stroke-miterlimit="10"/>
<path d="M1085.52 137.241H1050.9" stroke="#F4F1FF" stroke-width="3.2994" stroke-miterlimit="10"/>
<path d="M1289.94 341.88V376.281" stroke="#F4F1FF" stroke-width="3.2994" stroke-miterlimit="10"/>
<path d="M1307.14 359.08H1272.74" stroke="#F4F1FF" stroke-width="3.2994" stroke-miterlimit="10"/>
<path d="M1068.1 341.88V376.281" stroke="#F4F1FF" stroke-width="3.2994" stroke-miterlimit="10"/>
<path d="M1085.52 359.08H1050.9" stroke="#F4F1FF" stroke-width="3.2994" stroke-miterlimit="10"/>
<path d="M1289.94 563.499V598.12" stroke="#F4F1FF" stroke-width="3.2994" stroke-miterlimit="10"/>
<path d="M1307.14 580.919H1272.74" stroke="#F4F1FF" stroke-width="3.2994" stroke-miterlimit="10"/>
<path d="M1068.1 563.499V598.12" stroke="#F4F1FF" stroke-width="3.2994" stroke-miterlimit="10"/>
<path d="M1085.52 580.919H1050.9" stroke="#F4F1FF" stroke-width="3.2994" stroke-miterlimit="10"/>
<path d="M1289.94 785.338V819.959" stroke="#F4F1FF" stroke-width="3.2994" stroke-miterlimit="10"/>
<path d="M1307.14 802.538H1272.74" stroke="#F4F1FF" stroke-width="3.2994" stroke-miterlimit="10"/>
<path d="M1068.1 785.338V819.959" stroke="#F4F1FF" stroke-width="3.2994" stroke-miterlimit="10"/>
<path d="M1085.52 802.538H1050.9" stroke="#F4F1FF" stroke-width="3.2994" stroke-miterlimit="10"/>
<path d="M1289.94 1007.18V1041.58" stroke="#F4F1FF" stroke-width="3.2994" stroke-miterlimit="10"/>
<path d="M1307.14 1024.38H1272.74" stroke="#F4F1FF" stroke-width="3.2994" stroke-miterlimit="10"/>
<path d="M1068.1 1007.18V1041.58" stroke="#F4F1FF" stroke-width="3.2994" stroke-miterlimit="10"/>
<path d="M1085.52 1024.38H1050.9" stroke="#F4F1FF" stroke-width="3.2994" stroke-miterlimit="10"/>
<path d="M1068.1 120.041V154.441" stroke="#F4F1FF" stroke-width="3.2994" stroke-miterlimit="10"/>
<path d="M1085.52 137.241H1050.9" stroke="#F4F1FF" stroke-width="3.2994" stroke-miterlimit="10"/>
<path d="M846.48 120.041V154.441" stroke="#F4F1FF" stroke-width="3.2994" stroke-miterlimit="10"/>
<path d="M863.681 137.241H829.059" stroke="#F4F1FF" stroke-width="3.2994" stroke-miterlimit="10"/>
<path d="M1068.1 341.88V376.281" stroke="#F4F1FF" stroke-width="3.2994" stroke-miterlimit="10"/>
<path d="M1085.52 359.08H1050.9" stroke="#F4F1FF" stroke-width="3.2994" stroke-miterlimit="10"/>
<path d="M846.48 341.88V376.281" stroke="#F4F1FF" stroke-width="3.2994" stroke-miterlimit="10"/>
<path d="M863.681 359.08H829.059" stroke="#F4F1FF" stroke-width="3.2994" stroke-miterlimit="10"/>
<path d="M1068.1 563.499V598.12" stroke="#F4F1FF" stroke-width="3.2994" stroke-miterlimit="10"/>
<path d="M1085.52 580.919H1050.9" stroke="#F4F1FF" stroke-width="3.2994" stroke-miterlimit="10"/>
<path d="M846.48 563.499V598.12" stroke="#F4F1FF" stroke-width="3.2994" stroke-miterlimit="10"/>
<path d="M863.681 580.919H829.059" stroke="#F4F1FF" stroke-width="3.2994" stroke-miterlimit="10"/>
<path d="M1068.1 785.338V819.959" stroke="#F4F1FF" stroke-width="3.2994" stroke-miterlimit="10"/>
<path d="M1085.52 802.538H1050.9" stroke="#F4F1FF" stroke-width="3.2994" stroke-miterlimit="10"/>
<path d="M846.48 785.338V819.959" stroke="#F4F1FF" stroke-width="3.2994" stroke-miterlimit="10"/>
<path d="M863.681 802.538H829.059" stroke="#F4F1FF" stroke-width="3.2994" stroke-miterlimit="10"/>
<path d="M1068.1 1007.18V1041.58" stroke="#F4F1FF" stroke-width="3.2994" stroke-miterlimit="10"/>
<path d="M1085.52 1024.38H1050.9" stroke="#F4F1FF" stroke-width="3.2994" stroke-miterlimit="10"/>
<path d="M846.48 1007.18V1041.58" stroke="#F4F1FF" stroke-width="3.2994" stroke-miterlimit="10"/>
<path d="M863.681 1024.38H829.059" stroke="#F4F1FF" stroke-width="3.2994" stroke-miterlimit="10"/>
<path d="M846.48 120.041V154.441" stroke="#F4F1FF" stroke-width="3.2994" stroke-miterlimit="10"/>
<path d="M863.681 137.241H829.059" stroke="#F4F1FF" stroke-width="3.2994" stroke-miterlimit="10"/>
<path d="M624.641 120.041V154.441" stroke="#F4F1FF" stroke-width="3.2994" stroke-miterlimit="10"/>
<path d="M641.841 137.241H607.441" stroke="#F4F1FF" stroke-width="3.2994" stroke-miterlimit="10"/>
<path d="M846.48 341.88V376.281" stroke="#F4F1FF" stroke-width="3.2994" stroke-miterlimit="10"/>
<path d="M863.681 359.08H829.059" stroke="#F4F1FF" stroke-width="3.2994" stroke-miterlimit="10"/>
<path d="M624.641 341.88V376.281" stroke="#F4F1FF" stroke-width="3.2994" stroke-miterlimit="10"/>
<path d="M641.841 359.08H607.441" stroke="#F4F1FF" stroke-width="3.2994" stroke-miterlimit="10"/>
<path d="M846.48 563.499V598.12" stroke="#F4F1FF" stroke-width="3.2994" stroke-miterlimit="10"/>
<path d="M863.681 580.919H829.059" stroke="#F4F1FF" stroke-width="3.2994" stroke-miterlimit="10"/>
<path d="M624.641 563.499V598.12" stroke="#F4F1FF" stroke-width="3.2994" stroke-miterlimit="10"/>
<path d="M641.841 580.919H607.441" stroke="#F4F1FF" stroke-width="3.2994" stroke-miterlimit="10"/>
<path d="M846.48 785.338V819.959" stroke="#F4F1FF" stroke-width="3.2994" stroke-miterlimit="10"/>
<path d="M863.681 802.538H829.059" stroke="#F4F1FF" stroke-width="3.2994" stroke-miterlimit="10"/>
<path d="M624.641 785.338V819.959" stroke="#F4F1FF" stroke-width="3.2994" stroke-miterlimit="10"/>
<path d="M641.841 802.538H607.441" stroke="#F4F1FF" stroke-width="3.2994" stroke-miterlimit="10"/>
<path d="M846.48 1007.18V1041.58" stroke="#F4F1FF" stroke-width="3.2994" stroke-miterlimit="10"/>
<path d="M863.681 1024.38H829.059" stroke="#F4F1FF" stroke-width="3.2994" stroke-miterlimit="10"/>
<path d="M624.641 1007.18V1041.58" stroke="#F4F1FF" stroke-width="3.2994" stroke-miterlimit="10"/>
<path d="M641.841 1024.38H607.441" stroke="#F4F1FF" stroke-width="3.2994" stroke-miterlimit="10"/>
<path d="M624.641 120.041V154.441" stroke="#F4F1FF" stroke-width="3.2994" stroke-miterlimit="10"/>
<path d="M641.841 137.241H607.441" stroke="#F4F1FF" stroke-width="3.2994" stroke-miterlimit="10"/>
<path d="M180.742 120.041V154.441" stroke="#F4F1FF" stroke-width="3.2994" stroke-miterlimit="10"/>
<path d="M198.163 137.241H163.542" stroke="#F4F1FF" stroke-width="3.2994" stroke-miterlimit="10"/>
<path d="M180.742 341.88V376.281" stroke="#F4F1FF" stroke-width="3.2994" stroke-miterlimit="10"/>
<path d="M198.163 359.08H163.542" stroke="#F4F1FF" stroke-width="3.2994" stroke-miterlimit="10"/>
<path d="M180.742 563.499V598.12" stroke="#F4F1FF" stroke-width="3.2994" stroke-miterlimit="10"/>
<path d="M198.163 580.919H163.542" stroke="#F4F1FF" stroke-width="3.2994" stroke-miterlimit="10"/>
<path d="M180.742 785.338V819.959" stroke="#F4F1FF" stroke-width="3.2994" stroke-miterlimit="10"/>
<path d="M198.163 802.538H163.542" stroke="#F4F1FF" stroke-width="3.2994" stroke-miterlimit="10"/>
<path d="M180.742 1007.18V1041.58" stroke="#F4F1FF" stroke-width="3.2994" stroke-miterlimit="10"/>
<path d="M198.163 1024.38H163.542" stroke="#F4F1FF" stroke-width="3.2994" stroke-miterlimit="10"/>
<path d="M402.802 120.041V154.441" stroke="#F4F1FF" stroke-width="3.2994" stroke-miterlimit="10"/>
<path d="M420.002 137.241H385.602" stroke="#F4F1FF" stroke-width="3.2994" stroke-miterlimit="10"/>
<path d="M624.641 341.88V376.281" stroke="#F4F1FF" stroke-width="3.2994" stroke-miterlimit="10"/>
<path d="M641.841 359.08H607.441" stroke="#F4F1FF" stroke-width="3.2994" stroke-miterlimit="10"/>
<path d="M402.802 341.88V376.281" stroke="#F4F1FF" stroke-width="3.2994" stroke-miterlimit="10"/>
<path d="M420.002 359.08H385.602" stroke="#F4F1FF" stroke-width="3.2994" stroke-miterlimit="10"/>
<path d="M624.641 563.499V598.12" stroke="#F4F1FF" stroke-width="3.2994" stroke-miterlimit="10"/>
<path d="M641.841 580.919H607.441" stroke="#F4F1FF" stroke-width="3.2994" stroke-miterlimit="10"/>
<path d="M402.802 563.499V598.12" stroke="#F4F1FF" stroke-width="3.2994" stroke-miterlimit="10"/>
<path d="M420.002 580.919H385.602" stroke="#F4F1FF" stroke-width="3.2994" stroke-miterlimit="10"/>
<path d="M624.641 785.338V819.959" stroke="#F4F1FF" stroke-width="3.2994" stroke-miterlimit="10"/>
<path d="M641.841 802.538H607.441" stroke="#F4F1FF" stroke-width="3.2994" stroke-miterlimit="10"/>
<path d="M402.802 785.338V819.959" stroke="#F4F1FF" stroke-width="3.2994" stroke-miterlimit="10"/>
<path d="M420.002 802.538H385.602" stroke="#F4F1FF" stroke-width="3.2994" stroke-miterlimit="10"/>
<path d="M624.641 1007.18V1041.58" stroke="#F4F1FF" stroke-width="3.2994" stroke-miterlimit="10"/>
<path d="M641.841 1024.38H607.441" stroke="#F4F1FF" stroke-width="3.2994" stroke-miterlimit="10"/>
<path d="M402.802 1007.18V1041.58" stroke="#F4F1FF" stroke-width="3.2994" stroke-miterlimit="10"/>
<path d="M420.002 1024.38H385.602" stroke="#F4F1FF" stroke-width="3.2994" stroke-miterlimit="10"/>
</svg>
