<svg width="1932" height="1080" viewBox="0 0 1932 1080" fill="none" xmlns="http://www.w3.org/2000/svg">
<path d="M-44.8457 147.241H1983.46" stroke="#21DBC1" stroke-opacity="0.05" stroke-width="2" stroke-linecap="square" stroke-linejoin="round" stroke-dasharray="7 7"/>
<path d="M-44.8457 369.08H1983.46" stroke="#21DBC1" stroke-opacity="0.05" stroke-width="2" stroke-linecap="square" stroke-linejoin="round" stroke-dasharray="7 7"/>
<path d="M-44.8457 590.92H1983.46" stroke="#21DBC1" stroke-opacity="0.05" stroke-width="2" stroke-linecap="square" stroke-linejoin="round" stroke-dasharray="7 7"/>
<path d="M-44.8457 812.538H1983.46" stroke="#21DBC1" stroke-opacity="0.05" stroke-width="2" stroke-linecap="square" stroke-linejoin="round" stroke-dasharray="7 7"/>
<path d="M-44.8457 1034.38H1983.46" stroke="#21DBC1" stroke-opacity="0.05" stroke-width="2" stroke-linecap="square" stroke-linejoin="round" stroke-dasharray="7 7"/>
<path d="M1733.18 -530.846V1497.46" stroke="#21DBC1" stroke-opacity="0.05" stroke-width="2" stroke-linecap="square" stroke-linejoin="round" stroke-dasharray="7 7"/>
<path d="M1511.56 -530.846V1497.46" stroke="#21DBC1" stroke-opacity="0.05" stroke-width="2" stroke-linecap="square" stroke-linejoin="round" stroke-dasharray="7 7"/>
<path d="M1289.72 -530.846V1497.46" stroke="#21DBC1" stroke-opacity="0.05" stroke-width="2" stroke-linecap="square" stroke-linejoin="round" stroke-dasharray="7 7"/>
<path d="M1067.88 -530.846V1497.46" stroke="#21DBC1" stroke-opacity="0.05" stroke-width="2" stroke-linecap="square" stroke-linejoin="round" stroke-dasharray="7 7"/>
<path d="M846.26 -530.846V1497.46" stroke="#21DBC1" stroke-opacity="0.05" stroke-width="2" stroke-linecap="square" stroke-linejoin="round" stroke-dasharray="7 7"/>
<path d="M624.42 -530.846V1497.46" stroke="#21DBC1" stroke-opacity="0.05" stroke-width="2" stroke-linecap="square" stroke-linejoin="round" stroke-dasharray="7 7"/>
<path d="M402.582 -530.846V1497.46" stroke="#21DBC1" stroke-opacity="0.05" stroke-width="2" stroke-linecap="square" stroke-linejoin="round" stroke-dasharray="7 7"/>
<path d="M180.742 -530.846V1497.46" stroke="#21DBC1" stroke-opacity="0.05" stroke-width="2" stroke-linecap="square" stroke-linejoin="round" stroke-dasharray="7 7"/>
<path d="M1733.18 130.041V164.441" stroke="#0D1C1A" stroke-width="3.2994" stroke-miterlimit="10"/>
<path d="M1750.6 147.241H1715.98" stroke="#0D1C1A" stroke-width="3.2994" stroke-miterlimit="10"/>
<path d="M1511.56 130.041V164.441" stroke="#0D1C1A" stroke-width="3.2994" stroke-miterlimit="10"/>
<path d="M1528.76 147.241H1494.14" stroke="#0D1C1A" stroke-width="3.2994" stroke-miterlimit="10"/>
<path d="M1733.18 351.88V386.281" stroke="#0D1C1A" stroke-width="3.2994" stroke-miterlimit="10"/>
<path d="M1750.6 369.08H1715.98" stroke="#0D1C1A" stroke-width="3.2994" stroke-miterlimit="10"/>
<path d="M1511.56 351.88V386.281" stroke="#0D1C1A" stroke-width="3.2994" stroke-miterlimit="10"/>
<path d="M1528.76 369.08H1494.14" stroke="#0D1C1A" stroke-width="3.2994" stroke-miterlimit="10"/>
<path d="M1733.18 573.499V608.12" stroke="#0D1C1A" stroke-width="3.2994" stroke-miterlimit="10"/>
<path d="M1750.6 590.919H1715.98" stroke="#0D1C1A" stroke-width="3.2994" stroke-miterlimit="10"/>
<path d="M1511.56 573.499V608.12" stroke="#0D1C1A" stroke-width="3.2994" stroke-miterlimit="10"/>
<path d="M1528.76 590.919H1494.14" stroke="#0D1C1A" stroke-width="3.2994" stroke-miterlimit="10"/>
<path d="M1733.18 795.338V829.959" stroke="#0D1C1A" stroke-width="3.2994" stroke-miterlimit="10"/>
<path d="M1750.6 812.538H1715.98" stroke="#0D1C1A" stroke-width="3.2994" stroke-miterlimit="10"/>
<path d="M1511.56 795.338V829.959" stroke="#0D1C1A" stroke-width="3.2994" stroke-miterlimit="10"/>
<path d="M1528.76 812.538H1494.14" stroke="#0D1C1A" stroke-width="3.2994" stroke-miterlimit="10"/>
<path d="M1733.18 1017.18V1051.58" stroke="#0D1C1A" stroke-width="3.2994" stroke-miterlimit="10"/>
<path d="M1750.6 1034.38H1715.98" stroke="#0D1C1A" stroke-width="3.2994" stroke-miterlimit="10"/>
<path d="M1511.56 1017.18V1051.58" stroke="#0D1C1A" stroke-width="3.2994" stroke-miterlimit="10"/>
<path d="M1528.76 1034.38H1494.14" stroke="#0D1C1A" stroke-width="3.2994" stroke-miterlimit="10"/>
<path d="M1289.94 130.041V164.441" stroke="#0D1C1A" stroke-width="3.2994" stroke-miterlimit="10"/>
<path d="M1307.14 147.241H1272.74" stroke="#0D1C1A" stroke-width="3.2994" stroke-miterlimit="10"/>
<path d="M1068.1 130.041V164.441" stroke="#0D1C1A" stroke-width="3.2994" stroke-miterlimit="10"/>
<path d="M1085.52 147.241H1050.9" stroke="#0D1C1A" stroke-width="3.2994" stroke-miterlimit="10"/>
<path d="M1289.94 351.88V386.281" stroke="#0D1C1A" stroke-width="3.2994" stroke-miterlimit="10"/>
<path d="M1307.14 369.08H1272.74" stroke="#0D1C1A" stroke-width="3.2994" stroke-miterlimit="10"/>
<path d="M1068.1 351.88V386.281" stroke="#0D1C1A" stroke-width="3.2994" stroke-miterlimit="10"/>
<path d="M1085.52 369.08H1050.9" stroke="#0D1C1A" stroke-width="3.2994" stroke-miterlimit="10"/>
<path d="M1289.94 573.499V608.12" stroke="#0D1C1A" stroke-width="3.2994" stroke-miterlimit="10"/>
<path d="M1307.14 590.919H1272.74" stroke="#0D1C1A" stroke-width="3.2994" stroke-miterlimit="10"/>
<path d="M1068.1 573.499V608.12" stroke="#0D1C1A" stroke-width="3.2994" stroke-miterlimit="10"/>
<path d="M1085.52 590.919H1050.9" stroke="#0D1C1A" stroke-width="3.2994" stroke-miterlimit="10"/>
<path d="M1289.94 795.338V829.959" stroke="#0D1C1A" stroke-width="3.2994" stroke-miterlimit="10"/>
<path d="M1307.14 812.538H1272.74" stroke="#0D1C1A" stroke-width="3.2994" stroke-miterlimit="10"/>
<path d="M1068.1 795.338V829.959" stroke="#0D1C1A" stroke-width="3.2994" stroke-miterlimit="10"/>
<path d="M1085.52 812.538H1050.9" stroke="#0D1C1A" stroke-width="3.2994" stroke-miterlimit="10"/>
<path d="M1289.94 1017.18V1051.58" stroke="#0D1C1A" stroke-width="3.2994" stroke-miterlimit="10"/>
<path d="M1307.14 1034.38H1272.74" stroke="#0D1C1A" stroke-width="3.2994" stroke-miterlimit="10"/>
<path d="M1068.1 1017.18V1051.58" stroke="#0D1C1A" stroke-width="3.2994" stroke-miterlimit="10"/>
<path d="M1085.52 1034.38H1050.9" stroke="#0D1C1A" stroke-width="3.2994" stroke-miterlimit="10"/>
<path d="M1068.1 130.041V164.441" stroke="#0D1C1A" stroke-width="3.2994" stroke-miterlimit="10"/>
<path d="M1085.52 147.241H1050.9" stroke="#0D1C1A" stroke-width="3.2994" stroke-miterlimit="10"/>
<path d="M846.48 130.041V164.441" stroke="#0D1C1A" stroke-width="3.2994" stroke-miterlimit="10"/>
<path d="M863.681 147.241H829.06" stroke="#0D1C1A" stroke-width="3.2994" stroke-miterlimit="10"/>
<path d="M1068.1 351.88V386.281" stroke="#0D1C1A" stroke-width="3.2994" stroke-miterlimit="10"/>
<path d="M1085.52 369.08H1050.9" stroke="#0D1C1A" stroke-width="3.2994" stroke-miterlimit="10"/>
<path d="M846.48 351.88V386.281" stroke="#0D1C1A" stroke-width="3.2994" stroke-miterlimit="10"/>
<path d="M863.681 369.08H829.06" stroke="#0D1C1A" stroke-width="3.2994" stroke-miterlimit="10"/>
<path d="M1068.1 573.499V608.12" stroke="#0D1C1A" stroke-width="3.2994" stroke-miterlimit="10"/>
<path d="M1085.52 590.919H1050.9" stroke="#0D1C1A" stroke-width="3.2994" stroke-miterlimit="10"/>
<path d="M846.48 573.499V608.12" stroke="#0D1C1A" stroke-width="3.2994" stroke-miterlimit="10"/>
<path d="M863.681 590.919H829.06" stroke="#0D1C1A" stroke-width="3.2994" stroke-miterlimit="10"/>
<path d="M1068.1 795.338V829.959" stroke="#0D1C1A" stroke-width="3.2994" stroke-miterlimit="10"/>
<path d="M1085.52 812.538H1050.9" stroke="#0D1C1A" stroke-width="3.2994" stroke-miterlimit="10"/>
<path d="M846.48 795.338V829.959" stroke="#0D1C1A" stroke-width="3.2994" stroke-miterlimit="10"/>
<path d="M863.681 812.538H829.06" stroke="#0D1C1A" stroke-width="3.2994" stroke-miterlimit="10"/>
<path d="M1068.1 1017.18V1051.58" stroke="#0D1C1A" stroke-width="3.2994" stroke-miterlimit="10"/>
<path d="M1085.52 1034.38H1050.9" stroke="#0D1C1A" stroke-width="3.2994" stroke-miterlimit="10"/>
<path d="M846.48 1017.18V1051.58" stroke="#0D1C1A" stroke-width="3.2994" stroke-miterlimit="10"/>
<path d="M863.681 1034.38H829.06" stroke="#0D1C1A" stroke-width="3.2994" stroke-miterlimit="10"/>
<path d="M846.48 130.041V164.441" stroke="#0D1C1A" stroke-width="3.2994" stroke-miterlimit="10"/>
<path d="M863.681 147.241H829.06" stroke="#0D1C1A" stroke-width="3.2994" stroke-miterlimit="10"/>
<path d="M624.641 130.041V164.441" stroke="#0D1C1A" stroke-width="3.2994" stroke-miterlimit="10"/>
<path d="M641.841 147.241H607.441" stroke="#0D1C1A" stroke-width="3.2994" stroke-miterlimit="10"/>
<path d="M846.48 351.88V386.281" stroke="#0D1C1A" stroke-width="3.2994" stroke-miterlimit="10"/>
<path d="M863.681 369.08H829.06" stroke="#0D1C1A" stroke-width="3.2994" stroke-miterlimit="10"/>
<path d="M624.641 351.88V386.281" stroke="#0D1C1A" stroke-width="3.2994" stroke-miterlimit="10"/>
<path d="M641.841 369.08H607.441" stroke="#0D1C1A" stroke-width="3.2994" stroke-miterlimit="10"/>
<path d="M846.48 573.499V608.12" stroke="#0D1C1A" stroke-width="3.2994" stroke-miterlimit="10"/>
<path d="M863.681 590.919H829.06" stroke="#0D1C1A" stroke-width="3.2994" stroke-miterlimit="10"/>
<path d="M624.641 573.499V608.12" stroke="#0D1C1A" stroke-width="3.2994" stroke-miterlimit="10"/>
<path d="M641.841 590.919H607.441" stroke="#0D1C1A" stroke-width="3.2994" stroke-miterlimit="10"/>
<path d="M846.48 795.338V829.959" stroke="#0D1C1A" stroke-width="3.2994" stroke-miterlimit="10"/>
<path d="M863.681 812.538H829.06" stroke="#0D1C1A" stroke-width="3.2994" stroke-miterlimit="10"/>
<path d="M624.641 795.338V829.959" stroke="#0D1C1A" stroke-width="3.2994" stroke-miterlimit="10"/>
<path d="M641.841 812.538H607.441" stroke="#0D1C1A" stroke-width="3.2994" stroke-miterlimit="10"/>
<path d="M846.48 1017.18V1051.58" stroke="#0D1C1A" stroke-width="3.2994" stroke-miterlimit="10"/>
<path d="M863.681 1034.38H829.06" stroke="#0D1C1A" stroke-width="3.2994" stroke-miterlimit="10"/>
<path d="M624.641 1017.18V1051.58" stroke="#0D1C1A" stroke-width="3.2994" stroke-miterlimit="10"/>
<path d="M641.841 1034.38H607.441" stroke="#0D1C1A" stroke-width="3.2994" stroke-miterlimit="10"/>
<path d="M624.641 130.041V164.441" stroke="#0D1C1A" stroke-width="3.2994" stroke-miterlimit="10"/>
<path d="M641.841 147.241H607.441" stroke="#0D1C1A" stroke-width="3.2994" stroke-miterlimit="10"/>
<path d="M180.742 130.041V164.441" stroke="#0D1C1A" stroke-width="3.2994" stroke-miterlimit="10"/>
<path d="M198.163 147.241H163.542" stroke="#0D1C1A" stroke-width="3.2994" stroke-miterlimit="10"/>
<path d="M180.742 351.88V386.281" stroke="#0D1C1A" stroke-width="3.2994" stroke-miterlimit="10"/>
<path d="M198.163 369.08H163.542" stroke="#0D1C1A" stroke-width="3.2994" stroke-miterlimit="10"/>
<path d="M180.742 573.499V608.12" stroke="#0D1C1A" stroke-width="3.2994" stroke-miterlimit="10"/>
<path d="M198.163 590.919H163.542" stroke="#0D1C1A" stroke-width="3.2994" stroke-miterlimit="10"/>
<path d="M180.742 795.338V829.959" stroke="#0D1C1A" stroke-width="3.2994" stroke-miterlimit="10"/>
<path d="M198.163 812.538H163.542" stroke="#0D1C1A" stroke-width="3.2994" stroke-miterlimit="10"/>
<path d="M180.742 1017.18V1051.58" stroke="#0D1C1A" stroke-width="3.2994" stroke-miterlimit="10"/>
<path d="M198.163 1034.38H163.542" stroke="#0D1C1A" stroke-width="3.2994" stroke-miterlimit="10"/>
<path d="M402.802 130.041V164.441" stroke="#0D1C1A" stroke-width="3.2994" stroke-miterlimit="10"/>
<path d="M420.002 147.241H385.602" stroke="#0D1C1A" stroke-width="3.2994" stroke-miterlimit="10"/>
<path d="M624.641 351.88V386.281" stroke="#0D1C1A" stroke-width="3.2994" stroke-miterlimit="10"/>
<path d="M641.841 369.08H607.441" stroke="#0D1C1A" stroke-width="3.2994" stroke-miterlimit="10"/>
<path d="M402.802 351.88V386.281" stroke="#0D1C1A" stroke-width="3.2994" stroke-miterlimit="10"/>
<path d="M420.002 369.08H385.602" stroke="#0D1C1A" stroke-width="3.2994" stroke-miterlimit="10"/>
<path d="M624.641 573.499V608.12" stroke="#0D1C1A" stroke-width="3.2994" stroke-miterlimit="10"/>
<path d="M641.841 590.919H607.441" stroke="#0D1C1A" stroke-width="3.2994" stroke-miterlimit="10"/>
<path d="M402.802 573.499V608.12" stroke="#0D1C1A" stroke-width="3.2994" stroke-miterlimit="10"/>
<path d="M420.002 590.919H385.602" stroke="#0D1C1A" stroke-width="3.2994" stroke-miterlimit="10"/>
<path d="M624.641 795.338V829.959" stroke="#0D1C1A" stroke-width="3.2994" stroke-miterlimit="10"/>
<path d="M641.841 812.538H607.441" stroke="#0D1C1A" stroke-width="3.2994" stroke-miterlimit="10"/>
<path d="M402.802 795.338V829.959" stroke="#0D1C1A" stroke-width="3.2994" stroke-miterlimit="10"/>
<path d="M420.002 812.538H385.602" stroke="#0D1C1A" stroke-width="3.2994" stroke-miterlimit="10"/>
<path d="M624.641 1017.18V1051.58" stroke="#0D1C1A" stroke-width="3.2994" stroke-miterlimit="10"/>
<path d="M641.841 1034.38H607.441" stroke="#0D1C1A" stroke-width="3.2994" stroke-miterlimit="10"/>
<path d="M402.802 1017.18V1051.58" stroke="#0D1C1A" stroke-width="3.2994" stroke-miterlimit="10"/>
<path d="M420.002 1034.38H385.602" stroke="#0D1C1A" stroke-width="3.2994" stroke-miterlimit="10"/>
</svg>
